<svg xmlns="http://www.w3.org/2000/svg" width="300" height="420" viewBox="0 0 300 420">
  <metadata><?xpacket begin="﻿" id="W5M0MpCehiHzreSzNTczkc9d"?>
<x:xmpmeta xmlns:x="adobe:ns:meta/" x:xmptk="Adobe XMP Core 5.6-c142 79.160924, 2017/07/13-01:06:39        ">
   <rdf:RDF xmlns:rdf="http://www.w3.org/1999/02/22-rdf-syntax-ns#">
      <rdf:Description rdf:about=""/>
   </rdf:RDF>
</x:xmpmeta>
                                                                                                    
                                                                                                    
                                                                                                    
                                                                                                    
                                                                                                    
                                                                                                    
                                                                                                    
                                                                                                    
                                                                                                    
                                                                                                    
                                                                                                    
                                                                                                    
                                                                                                    
                                                                                                    
                                                                                                    
                                                                                                    
                                                                                                    
                                                                                                    
                                                                                                    
                                                                                                    
                           
<?xpacket end="w"?></metadata>
<defs>
    <style>
      .cls-1 {
        fill: #999;
        fill-rule: evenodd;
      }
    </style>
  </defs>
  <path id="location" class="cls-1" d="M291.037,105.806c-1.523-5.511-4.619-11.381-6.909-16.52-27.4-63.51-87.278-86.273-135.622-86.273-64.722,0-136,41.852-145.516,128.118v17.626c0,0.736.26,7.343,0.635,10.648C8.96,200.516,42.6,244.21,67.722,285.323,94.749,329.371,122.8,372.7,150.583,416.012c17.133-28.263,34.206-56.9,50.947-84.432,4.562-8.079,9.86-16.155,14.429-23.867,3.043-5.136,8.861-10.273,11.518-15.05,27.027-47.722,70.529-95.812,70.529-143.17V130.036C298.006,124.9,291.412,106.913,291.037,105.806ZM149.688,194.281c-19.025,0-39.845-9.174-50.124-34.508-1.53-4.033-1.408-12.116-1.408-12.856V135.536c0-32.3,28.435-46.985,53.173-46.985,30.454,0,54.01,23.5,54.01,52.871S180.146,194.281,149.688,194.281Z"/>
</svg>
