<?xml version="1.0" encoding="utf-8"?>
<!-- Generator: Adobe Illustrator 22.0.1, SVG Export Plug-In . SVG Version: 6.00 Build 0)  -->
<svg version="1.1" id="logo" xmlns="http://www.w3.org/2000/svg" xmlns:xlink="http://www.w3.org/1999/xlink" x="0px" y="0px"
	 viewBox="0 0 195 53.5" style="enable-background:new 0 0 195 53.5;" xml:space="preserve">
<style type="text/css">
	.st0{fill:#575757;}
	.st1{fill:none;stroke:#FF7800;stroke-width:2;}
</style>
<path id="RYAN" class="st0" d="M87.9,41.4h2.9V27.7h1.7l10.6,13.7h3.6L96.2,27.7c2,0.1,4-0.3,5.8-1c1.3-0.6,2.5-1.5,3.2-2.8
	c0.8-1.3,1.2-2.7,1.1-4.2c0.1-1.8-0.5-3.5-1.6-4.9c-1.1-1.3-2.6-2.2-4.3-2.6C98.2,12,96,11.9,93.8,12h-5.9V41.4z M96.1,14.8
	c1.5-0.1,2.9,0.1,4.3,0.5c0.9,0.3,1.6,0.9,2.1,1.7c0.5,0.8,0.8,1.7,0.8,2.7c0,1-0.3,1.9-0.8,2.8c-0.5,0.8-1.3,1.4-2.2,1.8
	c-1.4,0.4-2.9,0.6-4.4,0.6l-5.1,0v-10C90.9,14.8,96.1,14.8,96.1,14.8z M120.7,27.3v14.1h2.9V27.3l9.3-15.4h-3.4l-7.4,12.1l-7.5-12.1
	h-3.4L120.7,27.3z M149.9,11.9L136,41.4h3.3l4.6-9.7h12.7l4.6,9.7h3.2l-13.7-29.4H149.9L149.9,11.9z M155.2,28.9h-10.1l5-10.7
	L155.2,28.9z M172.8,41.4V19.1l19.4,22.3h0.7V11.9H190v22.6l-19.6-22.6h-0.6v29.4L172.8,41.4L172.8,41.4z"/>
<circle id="橢圓_2_拷貝" class="st1" cx="27" cy="26.8" r="25"/>
<circle id="橢圓_2_拷貝_2" class="st1" cx="50" cy="26.8" r="25"/>
</svg>
