<?xml version="1.0" encoding="utf-8"?>
<!-- Generator: Adobe Illustrator 22.0.1, SVG Export Plug-In . SVG Version: 6.00 Build 0)  -->
<svg version="1.1" id="圖層_1" xmlns="http://www.w3.org/2000/svg" xmlns:xlink="http://www.w3.org/1999/xlink" x="0px" y="0px"
	 viewBox="0 0 24.8 24.8" style="enable-background:new 0 0 24.8 24.8;" xml:space="preserve">
<style type="text/css">
	.st0{fill:#020202;}
</style>
<polygon class="st0" points="7.8,19.3 6.9,19.3 6.9,17.4 12.4,10.7 17.9,17.4 17.9,19.3 17,19.3 17,17.7 12.4,12.1 7.8,17.7 "/>
<polygon class="st0" points="7.8,13.3 6.9,13.3 6.9,11.5 12.4,4.8 17.9,11.4 17.9,13.3 17,13.3 17,11.7 12.4,6.1 7.8,11.7 "/>
<path class="st0" d="M12.4,24.8C5.6,24.8,0,19.2,0,12.4S5.6,0,12.4,0s12.4,5.6,12.4,12.4S19.2,24.8,12.4,24.8z M12.4,1
	C6.1,1,1,6.1,1,12.4s5.1,11.4,11.4,11.4s11.4-5.1,11.4-11.4S18.7,1,12.4,1z"/>
</svg>
