<?xml version="1.0" encoding="utf-8"?>
<!-- Generator: Adobe Illustrator 22.0.1, SVG Export Plug-In . SVG Version: 6.00 Build 0)  -->
<svg version="1.1" id="圖層_1" xmlns="http://www.w3.org/2000/svg" xmlns:xlink="http://www.w3.org/1999/xlink" x="0px" y="0px"
	 viewBox="0 0 24.8 24.8" style="enable-background:new 0 0 24.8 24.8;" xml:space="preserve">
<style type="text/css">
	.st0{fill:#FFFFFF;}
</style>
<polygon class="st0" points="8.3,11.9 7.5,11.9 7.5,10.2 12.4,4.3 17.3,10.2 17.3,11.9 16.5,11.9 16.5,10.4 12.4,5.4 8.3,10.4 "/>
<path class="st0" d="M12.4,24.8C5.6,24.8,0,19.2,0,12.4S5.6,0,12.4,0s12.4,5.6,12.4,12.4S19.2,24.8,12.4,24.8z M12.4,1
	C6.1,1,1,6.1,1,12.4s5.1,11.4,11.4,11.4s11.4-5.1,11.4-11.4S18.7,1,12.4,1z"/>
<path class="st0" d="M4.1,14.5h5.3V15H7.3v3.7h-1V15H4.1V14.5z"/>
<path class="st0" d="M10.1,15.3c0-0.9,0.8-0.9,1.5-0.9h1.7c0.8,0,1.5,0,1.5,0.9v2.5c0,0.9-0.8,0.9-1.5,0.9h-1.7
	c-0.8,0-1.5,0-1.5-0.9V15.3z M11.5,18.2h2.1c0.2,0,0.4,0,0.4-0.2v-2.7c0-0.2-0.2-0.2-0.4-0.2h-2.1c-0.2,0-0.4,0-0.4,0.2v2.7
	C11.1,18.2,11.3,18.2,11.5,18.2z"/>
<path class="st0" d="M15.8,14.5h3.3c0.8,0,1.5,0,1.5,0.9v0.8c0,0.9-0.8,0.9-1.5,0.9h-2.3v1.7h-1V14.5z M19.3,16.4
	c0.2,0,0.4,0,0.4-0.2v-1c0-0.2-0.2-0.2-0.4-0.2h-2.5v1.4L19.3,16.4z"/>
</svg>
